<?xml version="1.0" encoding="UTF-8" standalone="no"?>
<!-- Created with Inkscape (http://www.inkscape.org/) -->

<svg
   width="15.700007"
   height="20.700001"
   viewBox="0 0 4.1539602 5.4768754"
   version="1.1"
   id="svg8"
   xmlns:xlink="http://www.w3.org/1999/xlink"
   xmlns="http://www.w3.org/2000/svg"
   xmlns:svg="http://www.w3.org/2000/svg"
   xmlns:rdf="http://www.w3.org/1999/02/22-rdf-syntax-ns#"
   xmlns:cc="http://creativecommons.org/ns#"
   xmlns:dc="http://purl.org/dc/elements/1.1/">
  <defs
     id="defs2">
    <marker
       style="overflow:visible;"
       id="Arrow1Mend"
       refX="0.0"
       refY="0.0"
       orient="auto">
      <path
         transform="scale(0.4) rotate(180) translate(10,0)"
         style="fill-rule:evenodd;fill:context-stroke;stroke:context-stroke;stroke-width:1.0pt;"
         d="M 0.0,0.0 L 5.0,-5.0 L -12.5,0.0 L 5.0,5.0 L 0.0,0.0 z "
         id="path869" />
    </marker>
    <marker
       style="overflow:visible"
       id="marker1121"
       refX="0.0"
       refY="0.0"
       orient="auto">
      <path
         transform="scale(0.2) translate(6,0)"
         style="fill-rule:evenodd;fill:context-stroke;stroke:context-stroke;stroke-width:1.0pt"
         d="M 0.0,0.0 L 5.0,-5.0 L -12.5,0.0 L 5.0,5.0 L 0.0,0.0 z "
         id="path872" />
    </marker>
    <linearGradient
       id="linearGradient1264">
      <stop
         style="stop-color:#ddf3ff;stop-opacity:1;"
         offset="0"
         id="stop1260" />
      <stop
         style="stop-color:#ddf3ff;stop-opacity:0;"
         offset="1"
         id="stop1262" />
    </linearGradient>
    <marker
       orient="auto"
       refY="0"
       refX="0"
       id="Arrow1Sstart"
       style="overflow:visible">
      <path
         id="path868"
         d="M 0,0 5,-5 -12.5,0 5,5 Z"
         style="fill:#6b87c9;fill-opacity:1;fill-rule:evenodd;stroke:#6b87c9;stroke-width:1.00000003pt;stroke-opacity:1"
         transform="matrix(0.2,0,0,0.2,1.2,0)" />
    </marker>
    <marker
       orient="auto"
       refY="0"
       refX="0"
       id="Arrow1Mstart"
       style="overflow:visible">
      <path
         id="path862"
         d="M 0,0 5,-5 -12.5,0 5,5 Z"
         style="fill:#6b87c9;fill-opacity:1;fill-rule:evenodd;stroke:#6b87c9;stroke-width:1.00000003pt;stroke-opacity:1"
         transform="matrix(0.4,0,0,0.4,4,0)" />
    </marker>
    <marker
       orient="auto"
       refY="0"
       refX="0"
       id="Arrow2Mstart"
       style="overflow:visible">
      <path
         id="path880"
         style="fill:#ddf3ff;fill-opacity:1;fill-rule:evenodd;stroke:#6b87c9;stroke-width:0.625;stroke-linejoin:round;stroke-opacity:1"
         d="M 8.7185878,4.0337352 -2.2072895,0.01601326 8.7185884,-4.0017078 c -1.7454984,2.3720609 -1.7354408,5.6174519 -6e-7,8.035443 z"
         transform="scale(0.6)" />
    </marker>
    <linearGradient
       xlink:href="#linearGradient1264"
       id="linearGradient1266"
       x1="70.021978"
       y1="60.197906"
       x2="74.175938"
       y2="60.197906"
       gradientUnits="userSpaceOnUse" />
  </defs>
  <metadata
     id="metadata5">
    <rdf:RDF>
      <cc:Work
         rdf:about="">
        <dc:format>image/svg+xml</dc:format>
        <dc:type
           rdf:resource="http://purl.org/dc/dcmitype/StillImage" />
      </cc:Work>
    </rdf:RDF>
  </metadata>
  <g
     id="layer1"
     transform="translate(-78.273925,-57.158791)">
    <g
       id="g1250"
       transform="translate(8.2519467,-0.30067822)">
      <path
         id="path12-3"
         d="M 74.083334,58.610408 73.025,57.552075 l -2.910418,-2e-6 v 5.291667 h 3.96875 z"
         style="fill:#ffffff;fill-opacity:1;stroke:none;stroke-width:0.18520834;stroke-linecap:butt;stroke-linejoin:miter;stroke-miterlimit:4;stroke-dasharray:none;stroke-opacity:1" />
      <path
         id="path12"
         d="M 74.083334,58.610408 73.025,57.552075 l -2.910418,-2e-6 v 5.291667 h 3.96875 z"
         style="fill:url(#linearGradient1266);fill-opacity:1;stroke:#000001;stroke-width:0.18520834;stroke-linecap:butt;stroke-linejoin:miter;stroke-miterlimit:4;stroke-dasharray:none;stroke-opacity:1" />
      <g
         id="g2670">
        <g
           aria-label="CT"
           id="text16"
           style="font-size:3.52778px;line-height:1;font-family:Calibri;-inkscape-font-specification:Calibri;letter-spacing:0px;word-spacing:0px;fill:#6b87c9;stroke-width:0.264583">
          <path
             d="m 71.933596,61.668217 0.167087,0.0422 q -0.05254,0.205844 -0.18948,0.314365 -0.136081,0.107659 -0.333313,0.107659 -0.204122,0 -0.332452,-0.08268 -0.127469,-0.08354 -0.194648,-0.241157 -0.06632,-0.157613 -0.06632,-0.338481 0,-0.197232 0.07493,-0.343648 0.07579,-0.147278 0.214457,-0.22307 0.139526,-0.07665 0.306614,-0.07665 0.18948,0 0.318671,0.09646 0.129191,0.09646 0.180006,0.271301 l -0.164503,0.03876 q -0.04393,-0.137804 -0.127469,-0.200677 -0.08354,-0.06287 -0.21015,-0.06287 -0.145556,0 -0.243741,0.06976 -0.09732,0.06976 -0.136943,0.187758 -0.03962,0.117133 -0.03962,0.242018 0,0.161058 0.04651,0.281637 0.04737,0.119717 0.146417,0.179145 0.09905,0.05943 0.214457,0.05943 0.140388,0 0.237712,-0.08096 0.09732,-0.08096 0.131775,-0.240296 z"
             style="font-size:1.76389px;font-family:Arial;-inkscape-font-specification:Arial;fill:#000000"
             id="path876" />
          <path
             d="m 72.627783,62.110912 v -1.113628 h -0.415995 v -0.149 h 1.000801 v 0.149 h -0.417718 v 1.113628 z"
             style="font-size:1.76389px;font-family:Arial;-inkscape-font-specification:Arial;fill:#000000"
             id="path878" />
        </g>
        <g
           id="g1242"
           transform="translate(-4.6302137,-0.21462567)">
          <path
             d="m 77.137975,59.089617 a 1.3229166,0.33072916 0 0 1 0.897826,0.36628 1.3229166,0.33072916 0 0 1 -1.306629,0.278992 1.3229166,0.33072916 0 0 1 -1.30663,-0.278992 1.3229166,0.33072916 0 0 1 0.897826,-0.36628"
             id="path852"
             style="fill:none;fill-opacity:1;stroke:#000001;stroke-width:0.18520833;stroke-linecap:round;stroke-linejoin:miter;stroke-miterlimit:4;stroke-dasharray:none;stroke-dashoffset:0;stroke-opacity:1;marker-start:url(#marker1121)" />
          <path
             id="path854"
             d="m 76.729167,58.345825 v 2.116667"
             style="fill:none;stroke:#000001;stroke-width:0.18520834;stroke-linecap:round;stroke-linejoin:miter;stroke-miterlimit:4;stroke-dasharray:none;stroke-opacity:1" />
        </g>
      </g>
    </g>
  </g>
</svg>
